<svg width="580" height="400" xmlns="http://www.w3.org/2000/svg">
 <!-- Created with Method Draw - http://github.com/duopixel/Method-Draw/ -->

 <g>
  <title>background</title>
  <rect fill="#fff" id="canvas_background" height="402" width="582" y="-1" x="-1"/>
  <g display="none" overflow="visible" y="0" x="0" height="100%" width="100%" id="canvasGrid">
   <rect fill="url(#gridpattern)" stroke-width="0" y="0" x="0" height="100%" width="100%"/>
  </g>
 </g>
 <g>
  <title>Layer 1</title>
  <g stroke="null" id="svg_5">
   <path stroke="null" id="svg_4" fill="#C7C7C7" d="m356.027237,147.391059l1.39661,57.859295c0.15884,0.354237 0.31073,0.710018 0.455153,1.06786l12.21448,5.117385l-10.289604,7.829511c-0.035784,0.368396 -0.079291,0.735505 -0.130007,1.101584l8.35443,9.555644l-12.999156,2.565128c-10.303506,15.948641 -35.731331,27.23119 -65.467408,27.23119c-29.577752,0 -54.893076,-11.162839 -65.301617,-26.97684l-14.288825,-2.819479l8.88092,-10.158052l-10.945689,-8.328686l13.574739,-5.687356c0.170682,-0.399031 0.350504,-0.795746 0.53931,-1.190143l-1.351764,-56.000375l49.113583,26.796683c6.274576,-1.121922 12.911884,-1.723558 19.779343,-1.723558c7.104818,0 13.963525,0.644114 20.42912,1.84198l46.036381,-28.08177z" clip-rule="evenodd" fill-rule="evenodd"/>
  </g>
 </g>
</svg>