<svg xmlns="http://www.w3.org/2000/svg" width="282" height="44" fill="none"><path fill="#F3F3FF" fill-rule="evenodd" d="M57.54 0l.54 22.47c.06.14.12.28.18.42L63 24.87l-4 3.04c0 .14-.03.28-.05.43l3.25 3.7-5.05 1c-4 6.2-13.88 10.58-25.43 10.58-11.5 0-21.32-4.33-25.37-10.48L.8 32.05l3.45-3.94L0 24.9l5.27-2.2c.07-.17.14-.32.2-.47L4.98.46l19.07 10.4c2.43-.42 5-.66 7.68-.66 2.76 0 5.42.24 7.93.7L57.55 0z" clip-rule="evenodd"/><path fill="#fff" d="M91.13 31.38l-2.5-1.13v-4.98c.55.05 1.5.16 2.8.13 4.5-.07 6.5-2.45 6.5-5.32 0-2.3-1.43-4.7-6.4-4.7h-9.68c-.13 0-.13.54 0 .62l2.05 1.13c-.05 1.47-.15 3.37-.15 6.2 0 2.82.1 5.27.15 6.92l-2.05 1.13c-.13.07-.15.62 0 .62h9.28c.15 0 .12-.57 0-.63zm-2.5-14.9h1.02c1.02 0 1.8.1 2.25.3.63.62.95 1.97.95 3.3 0 2.77-.8 4.2-2.88 4.2-.6 0-.82-.03-1.34-.1v-7.7zm25.84 14.57c.1-.05.08-.57-.05-.6l-1.8-.4-.25-.35c.05-1.22.15-3.38.15-6.07 0-1.13 0-3.53-.17-4.33 0 0-1.48.05-2.98.2-1.22.13-2.4.27-2.75.35-.15.02-.12.67 0 .75l1.68 1.13c-.08.95-.18 2.75-.18 4.37 0 1.2 0 2.42.1 3.45-.55.15-1.4.4-2.55.4-1.55 0-1.62-.93-1.67-3.35-.03-1.45-.03-2.35 0-3.8.02-1.3.12-2.82-.05-3.45-1.18.05-2.03.07-2.93.15-1.3.1-2.2.2-2.85.3-.12.02-.1.7 0 .75l1.68 1.18c-.13 1.52-.25 4.9-.13 6.37.25 3.17 1.7 4.17 4.05 4.17 1.6 0 3.73-1.47 4.53-2.02v.02c.27 1.1 1.12 2 2.2 2 1.52 0 3.5-.82 3.97-1.22zm9.3.32l-2.45-1.17c.07-1.88.1-4.47.1-6.2 0-.57 0-1.07 0-1.5.34-.18 1.12-.43 1.77-.48.56.08 1.66.93 2.52 1.4.12.05.42.03.6-.02.25-.3.62-1.3.7-2.42.05-1.28-.18-1.9-1.58-1.83-1.52.08-3.1 1.65-4.05 2.63-.06-1.23-.14-1.9-.3-2.4-1.83 0-5.36.2-5.78.25-.15.02-.15.67-.03.75l1.9 1.32c-.06.98-.1 2.2-.1 4.35 0 1.77.04 3.18.1 4.2l-1.6 1.13c-.1.1-.13.62.02.62h8.12c.13 0 .1-.57.03-.63zm12.23 0l-2.45-1.17c.07-1.88.1-4.47.1-6.2 0-.57 0-1.07 0-1.5.35-.18 1.12-.43 1.77-.48.58.08 1.68.93 2.53 1.4.12.05.42.03.6-.02.25-.3.62-1.3.7-2.42.05-1.28-.18-1.9-1.58-1.83-1.52.08-3.1 1.65-4.05 2.63-.05-1.23-.12-1.9-.27-2.4-1.85 0-5.38.2-5.8.25-.15.02-.15.67-.03.75l1.9 1.32c-.05.98-.1 2.2-.1 4.35 0 1.77.05 3.18.1 4.2l-1.57 1.13c-.13.1-.15.62 0 .62h8.12c.13 0 .1-.57.03-.63zm12.23 0l-2.45-1.17c.07-1.88.1-4.47.1-6.2 0-.57 0-1.07 0-1.5.35-.18 1.12-.43 1.77-.48.58.08 1.68.93 2.53 1.4.12.05.42.03.6-.02.25-.3.62-1.3.7-2.42.05-1.28-.18-1.9-1.58-1.83-1.52.08-3.1 1.65-4.05 2.63-.05-1.23-.12-1.9-.27-2.4-1.85 0-5.38.2-5.8.25-.15.02-.15.67-.03.75l1.9 1.32c-.05.98-.1 2.2-.1 4.35 0 1.77.05 3.18.1 4.2l-1.57 1.13c-.13.1-.15.62 0 .62h8.12c.13 0 .1-.57.03-.63zm9.83-1.12c.07-1.65.12-5 .12-8.82l3.55.12c.15 0 .18-2 0-2l-3.55.07v-3.35c0-1.7.45-2.4 1.1-2.42.45.2 1.45 2.22 2.13 3.2.13.07.43.18.63.18 1.03-.4 1.55-1.26 1.48-2.26-.22-1.35-1.9-1.92-3.8-1.92-1.74 0-3.2.55-4.14 1.4-.98.88-1.58 2.65-1.7 4.98l-1.68 1.12c-.1.07-.15.88 0 .88h1.68c0 .55-.05 2.12-.05 3.9 0 1.85.08 4.15.13 4.92l-1.7 1.13c-.12.07-.15.62 0 .62h8.2c.18 0 .18-.55.03-.63l-2.4-1.12zm4.23-4.35c0 4.7 2.96 6.45 6.86 6.45 1.93 0 4.1-.9 5.33-2.38.16-.24-.26-.8-.36-.72-.9.5-2.05.85-3.63.85-2.56 0-3.53-1.6-3.66-4.6l7.17.02c.22 0 .56-.37.62-.7.17-3.12-1.8-5.8-5.36-5.8-3.67 0-6.97 2.33-6.97 6.88zm4.54-1.32c.03-1.9.38-3.58.85-4.23.34-.23.67-.33 1.12-.33 1.22 0 1.72.96 1.8 2.8.02.4 0 1.13-.03 1.6l-3.76.15zM184 20.2l1.1 3.48c.2.1.54.14.96.14 1.25 0 2.03-1 1.83-2.37-.4-1.32-2.2-2.43-4.64-2.43-4.25 0-7.37 2.48-7.37 6.9 0 4.65 2.9 6.43 6.84 6.43 1.85 0 3.95-.88 5.17-2.38.2-.24-.2-.8-.34-.72-.87.52-2 .9-3.5.85-2.12-.05-3.55-.93-3.55-5.3 0-1.75.34-3.38.9-4.35.36-.27.9-.43 1.54-.43.42 0 .77.05 1.05.18zm10.8 12.15c2.2 0 3.78-1.18 4.38-1.75.07-.08-.1-.73-.2-.7-.58.15-1.35.33-2.1.33-1.7 0-2.13-.28-2.13-2.86 0-1.82.08-4.57.13-5.95l3.37.13c.15 0 .18-2 0-2l-3.35.07c0-1.17.05-2.64.1-3.47 0-.2-1.15-.2-1.3 0l-2.92 3.35-2 1.05c-.1.05-.1.88 0 .88h1.75c-.13 2-.18 4.7-.13 6.67.13 3.15 1.28 4.25 4.4 4.25zm25.3-14.43c-.06 1.38-.14 3.9-.1 6.38 0 2.57 0 4.52.06 5.93l-1.8 1.14c-.12.08-.15.63 0 .63h8.53c.1 0 .1-.57 0-.63l-2.1-1.14c.1-1.55.16-3.98.14-6.5-.03-2.75-.08-5.03-.18-6.6L226.7 16c.14-.07.14-.63 0-.63h-6.66l-4.4 10.8c-.5-1.55-1.33-3.6-2.08-5.45-.87-2.12-1.72-4.02-2.37-5.34h-6.8c-.14 0-.16.54 0 .62l2.2 1.13-.34 13.1-2.25 1.14c-.1.05-.1.63 0 .63h5.66c.13 0 .1-.55 0-.63l-2.12-1.14.12-12.18c.6 1.72 1.73 4.65 2.73 7.05.96 2.35 2.3 5.45 3.06 6.8.15.25.73.2.8 0l5.83-13.97zm17.3 14.35c1.45 0 3.52-.8 4-1.2.1-.05.07-.6-.05-.62l-1.73-.4-.25-.35c.08-1.52.18-4.2.08-6.43-.15-3.17-2.43-4.25-5.38-4.25-2.32 0-4.5 1.43-5.35 2.16-.15.17.15.8.25.77 1.1-.4 2.83-.72 4.13-.72 1.5 0 2 .2 2 2.72 0 .28 0 .6 0 1-2.05.1-4.63.32-5.6.75-1.08.63-1.65 1.9-1.6 3.43.07 1.85 1.32 3.17 3.47 3.17 1.4 0 2.88-.95 3.88-1.72.35.9 1.1 1.6 2.15 1.7zm-4.08-1.95c-.8-.02-1.27-.67-1.32-1.8-.03-.95.22-1.8.62-2.17.83-.33 1.6-.53 2.45-.65 0 1.38 0 3.05.08 4.18-.63.37-1.18.47-1.83.45zm14.83 2.03c2.2 0 3.77-1.18 4.37-1.75.08-.08-.1-.73-.2-.7-.57.15-1.35.33-2.1.33-1.7 0-2.12-.28-2.12-2.86 0-1.82.07-4.57.12-5.95l3.38.13c.15 0 .17-2 0-2l-3.35.07c0-1.17.05-2.64.1-3.47 0-.2-1.15-.2-1.3 0l-2.93 3.35-2 1.05c-.1.05-.1.88 0 .88h1.75c-.12 2-.17 4.7-.12 6.67.12 3.15 1.27 4.25 4.4 4.25zm13-12.15l1.1 3.48c.2.1.54.14.96.14 1.26 0 2.04-1 1.84-2.37-.4-1.32-2.2-2.43-4.63-2.43-4.24 0-7.36 2.48-7.36 6.9 0 4.65 2.92 6.43 6.85 6.43 1.84 0 3.94-.88 5.16-2.38.18-.24-.22-.8-.35-.72-.86.52-2 .9-3.5.85-2.1-.05-3.54-.93-3.54-5.3 0-1.75.33-3.38.88-4.35.37-.27.92-.43 1.55-.43.4 0 .76.05 1.04.18zm11.7 11.18l-1.4-1.13c.06-1.65.1-4.32.13-8.23.5-.14 1.23-.37 2.35-.37 1.55 0 1.7.73 1.7 3.15 0 1.45-.12 4-.2 5.45l-1.35 1.13c-.1.07-.12.62 0 .62h7.35c.15 0 .13-.55.03-.63l-1.73-1.12c.15-1.77.35-4.98.28-6.73-.12-3.2-1.62-4.34-3.94-4.34-1.5 0-3.65 1.47-4.48 2.07 0-1.25 0-2.6 0-4.07 0-2.25-.07-3.2-.3-3.96-1.85.03-5.02.43-5.75.55-.17.03-.15.63-.02.7l1.98 1.23c-.1 1.53-.17 4.7-.17 7.18 0 2.62.08 5.57.13 7.37l-1.5 1.13c-.1.1-.15.62 0 .62h6.9c.13 0 .1-.57.03-.63z"/></svg>