<?xml version="1.0" standalone="no"?>
<!DOCTYPE svg PUBLIC "-//W3C//DTD SVG 20010904//EN"
 "http://www.w3.org/TR/2001/REC-SVG-20010904/DTD/svg10.dtd">
<svg version="1.0" xmlns="http://www.w3.org/2000/svg"
 width="507.000000pt" height="352.000000pt" viewBox="0 0 507.000000 352.000000"
 preserveAspectRatio="xMidYMid meet">

<g transform="translate(0.000000,352.000000) scale(0.100000,-0.100000)"
fill="#000000" stroke="none">
<path d="M3496 3123 l-500 -304 -120 17 c-158 23 -494 23 -653 1 l-112 -16
-531 290 c-293 160 -534 288 -537 285 -4 -4 7 -555 22 -1041 3 -99 2 -185 -2
-191 -4 -6 -72 -38 -150 -70 -79 -32 -143 -61 -143 -64 0 -4 52 -46 115 -94
l116 -87 -97 -110 c-53 -60 -95 -111 -93 -113 2 -1 73 -15 156 -31 l153 -29
25 -37 c43 -66 165 -178 265 -244 168 -112 391 -204 617 -254 316 -71 715 -70
1043 0 273 59 545 186 727 337 57 48 149 148 170 187 6 9 54 24 138 40 72 15
136 28 143 30 8 3 -21 43 -77 107 -50 57 -91 108 -91 114 0 7 49 49 110 95 60
46 110 86 110 89 0 3 -58 29 -129 58 -71 30 -132 60 -135 67 -2 7 -10 237 -16
511 -6 275 -15 558 -18 630 l-7 131 -499 -304z"/>
<path d="M1590 640 c0 -94 17 -126 22 -42 3 43 5 47 28 47 23 0 25 -4 28 -47
4 -63 22 -62 22 1 0 56 -17 76 -55 67 -23 -6 -25 -4 -25 29 0 19 -4 35 -10 35
-6 0 -10 -37 -10 -90z"/>
<path d="M3640 695 c0 -33 -1 -34 -29 -29 -22 5 -32 1 -45 -17 -36 -51 -8 -98
57 -96 l37 1 0 88 c0 52 -4 88 -10 88 -5 0 -10 -16 -10 -35z m-5 -85 c0 -38
-24 -52 -50 -30 -31 25 -9 73 30 68 16 -2 20 -11 20 -38z"/>
<path d="M1450 710 c0 -5 11 -10 25 -10 24 0 25 -2 25 -75 0 -43 4 -75 10 -75
6 0 10 32 10 75 0 73 1 75 25 75 14 0 25 5 25 10 0 6 -27 10 -60 10 -33 0 -60
-4 -60 -10z"/>
<path d="M2065 705 c-3 -8 -7 -22 -10 -30 -9 -29 13 -15 24 15 6 19 6 30 0 30
-5 0 -12 -7 -14 -15z"/>
<path d="M2810 686 c0 -8 -6 -17 -12 -20 -10 -5 -10 -7 0 -12 6 -3 12 -21 12
-39 0 -18 3 -40 6 -49 7 -17 44 -22 44 -6 0 6 -7 10 -15 10 -11 0 -15 11 -15
40 0 29 4 40 15 40 8 0 15 5 15 10 0 6 -7 10 -15 10 -8 0 -15 7 -15 15 0 8 -4
15 -10 15 -5 0 -10 -6 -10 -14z"/>
<path d="M1740 650 c-41 -41 -13 -100 48 -100 45 0 40 18 -5 22 -27 2 -39 8
-41 21 -3 14 4 17 42 17 50 0 60 15 28 43 -25 22 -48 21 -72 -3z m70 -20 c0
-6 -16 -10 -35 -10 -38 0 -46 13 -18 29 19 10 53 -2 53 -19z"/>
<path d="M1850 610 c0 -33 4 -60 10 -60 6 0 10 18 10 39 0 30 6 44 22 55 12 9
19 19 15 22 -4 4 -13 1 -22 -6 -10 -8 -15 -9 -15 -1 0 6 -4 11 -10 11 -6 0
-10 -27 -10 -60z"/>
<path d="M1946 648 c-33 -46 -7 -98 47 -98 38 0 34 18 -5 22 -22 2 -34 9 -36
21 -3 14 4 17 37 17 45 0 54 16 25 44 -22 22 -50 20 -68 -6z m64 -19 c0 -5
-13 -9 -30 -9 -33 0 -39 14 -13 29 18 10 43 -2 43 -20z"/>
<path d="M2102 658 c-19 -19 -14 -37 13 -50 14 -6 25 -17 25 -25 0 -7 -11 -13
-25 -13 -14 0 -25 -5 -25 -11 0 -17 52 -6 64 14 9 15 6 22 -16 41 -35 27 -35
36 -2 36 14 0 23 4 19 10 -8 14 -38 13 -53 -2z"/>
<path d="M2240 610 c0 -71 16 -80 22 -12 5 51 1 72 -13 72 -5 0 -9 -27 -9 -60z"/>
<path d="M2275 660 c-3 -6 5 -10 18 -10 28 0 37 -16 37 -66 0 -19 5 -34 10
-34 13 0 13 76 0 101 -11 20 -54 26 -65 9z"/>
<path d="M2397 652 c-35 -38 -9 -102 40 -102 47 0 71 71 35 103 -24 22 -55 21
-75 -1z m68 -22 c10 -32 -4 -60 -30 -60 -26 0 -40 28 -30 60 4 13 15 20 30 20
15 0 26 -7 30 -20z"/>
<path d="M2590 650 c-11 -11 -20 -29 -20 -40 0 -28 35 -60 65 -60 33 0 32 18
-1 22 -35 4 -53 31 -38 56 6 9 23 18 38 20 14 2 26 8 26 13 0 17 -50 9 -70
-11z"/>
<path d="M2695 661 c-3 -5 7 -11 22 -13 34 -4 44 -28 11 -28 -29 0 -48 -17
-48 -42 0 -20 0 -20 53 -23 l37 -2 0 46 c0 26 -5 52 -12 59 -14 14 -54 16 -63
3z m53 -68 c-4 -22 -48 -31 -48 -10 0 19 10 27 32 27 13 0 18 -6 16 -17z"/>
<path d="M2945 661 c-3 -5 7 -11 22 -13 34 -4 44 -28 11 -28 -29 0 -48 -17
-48 -42 0 -20 0 -20 53 -23 l37 -2 0 46 c0 26 -5 52 -12 59 -14 14 -54 16 -63
3z m53 -68 c-4 -22 -48 -31 -48 -10 0 19 10 27 32 27 13 0 18 -6 16 -17z"/>
<path d="M3060 608 c0 -32 4 -58 10 -58 6 0 10 15 10 34 0 44 9 66 26 66 8 0
14 4 14 8 0 5 -13 9 -30 9 -30 0 -30 -1 -30 -59z"/>
<path d="M3150 650 c-11 -11 -20 -29 -20 -40 0 -26 34 -60 60 -60 11 0 29 9
40 20 11 11 20 29 20 40 0 11 -9 29 -20 40 -11 11 -29 20 -40 20 -11 0 -29 -9
-40 -20z m70 -15 c15 -18 10 -45 -12 -59 -35 -22 -74 27 -48 59 16 19 44 19
60 0z"/>
<path d="M3282 619 c3 -60 24 -82 58 -61 12 7 20 8 20 2 0 -5 5 -10 10 -10 6
0 10 27 10 60 0 71 -18 81 -22 13 -3 -44 -5 -48 -28 -48 -23 0 -25 4 -28 48
-2 26 -8 47 -13 47 -6 0 -9 -22 -7 -51z"/>
<path d="M3420 608 c0 -70 18 -78 22 -10 3 43 5 47 28 47 23 0 25 -4 28 -47 4
-63 22 -62 22 1 0 57 -12 70 -62 68 l-38 -1 0 -58z"/>
<path d="M800 310 c0 -53 4 -90 10 -90 6 0 10 15 10 34 0 49 9 66 35 66 26 0
35 -17 35 -66 0 -19 5 -34 10 -34 15 0 12 83 -3 105 -11 14 -22 17 -45 12 -31
-6 -32 -5 -32 28 0 19 -4 35 -10 35 -6 0 -10 -37 -10 -90z"/>
<path d="M2210 310 c0 -94 17 -126 22 -42 3 43 5 47 28 47 23 0 25 -4 28 -47
4 -63 22 -62 22 1 0 56 -17 76 -55 67 -23 -6 -25 -4 -25 29 0 19 -4 35 -10 35
-6 0 -10 -37 -10 -90z"/>
<path d="M2820 310 c0 -94 17 -126 22 -42 3 43 5 47 28 47 23 0 25 -4 28 -47
4 -63 22 -62 22 1 0 56 -17 76 -55 67 -23 -6 -25 -4 -25 29 0 19 -4 35 -10 35
-6 0 -10 -37 -10 -90z"/>
<path d="M3480 365 c0 -33 -1 -34 -29 -29 -22 5 -32 1 -45 -17 -36 -51 -8 -98
57 -96 l37 1 0 88 c0 52 -4 88 -10 88 -5 0 -10 -16 -10 -35z m-5 -85 c0 -38
-24 -52 -50 -30 -31 25 -9 73 30 68 16 -2 20 -11 20 -38z"/>
<path d="M3620 365 c0 -33 -1 -34 -29 -29 -22 5 -32 1 -45 -17 -36 -51 -8 -98
57 -96 l37 1 0 88 c0 52 -4 88 -10 88 -5 0 -10 -16 -10 -35z m-5 -85 c0 -38
-24 -52 -50 -30 -31 25 -9 73 30 68 16 -2 20 -11 20 -38z"/>
<path d="M290 305 c0 -50 4 -85 10 -85 6 0 10 13 10 29 0 23 5 30 27 36 40 10
53 24 53 56 0 33 -23 49 -69 49 l-31 0 0 -85z m77 49 c8 -22 -9 -48 -36 -52
-18 -3 -21 1 -21 32 0 32 3 36 25 36 15 0 28 -7 32 -16z"/>
<path d="M2005 381 c-6 -11 9 -23 19 -14 9 9 7 23 -3 23 -6 0 -12 -4 -16 -9z"/>
<path d="M2662 381 c4 -13 18 -16 19 -4 0 4 -5 9 -11 12 -7 2 -11 -2 -8 -8z"/>
<path d="M2350 356 c0 -8 -6 -17 -12 -19 -10 -4 -10 -7 -1 -14 6 -5 13 -29 15
-53 2 -38 7 -46 26 -48 12 -2 22 1 22 7 0 6 -7 11 -15 11 -11 0 -15 11 -15 40
0 29 4 40 15 40 8 0 15 5 15 10 0 6 -7 10 -15 10 -8 0 -15 7 -15 15 0 8 -4 15
-10 15 -5 0 -10 -6 -10 -14z"/>
<path d="M3010 356 c0 -8 -6 -17 -12 -20 -10 -5 -10 -7 0 -12 6 -3 12 -21 12
-39 0 -18 3 -40 6 -49 7 -17 44 -22 44 -6 0 6 -7 10 -15 10 -11 0 -15 11 -15
40 0 29 4 40 15 40 8 0 15 5 15 10 0 6 -7 10 -15 10 -8 0 -15 7 -15 15 0 8 -4
15 -10 15 -5 0 -10 -6 -10 -14z"/>
<path d="M422 289 c3 -60 24 -82 58 -61 12 7 20 8 20 2 0 -5 5 -10 10 -10 6 0
10 27 10 60 0 71 -18 81 -22 13 -3 -44 -5 -48 -28 -48 -23 0 -25 4 -28 48 -2
26 -8 47 -13 47 -6 0 -9 -22 -7 -51z"/>
<path d="M550 280 c0 -33 4 -60 10 -60 6 0 10 18 10 39 0 30 6 44 22 55 12 9
19 19 15 22 -4 4 -13 1 -22 -6 -10 -8 -15 -9 -15 -1 0 6 -4 11 -10 11 -6 0
-10 -27 -10 -60z"/>
<path d="M640 278 c0 -32 4 -58 10 -58 6 0 10 15 10 34 0 44 9 66 26 66 8 0
14 4 14 8 0 5 -13 9 -30 9 -30 0 -30 -1 -30 -59z"/>
<path d="M720 278 c0 -32 4 -58 10 -58 6 0 10 15 10 34 0 44 9 66 26 66 8 0
14 4 14 8 0 5 -13 9 -30 9 -30 0 -30 -1 -30 -59z"/>
<path d="M945 331 c-3 -5 9 -11 27 -13 40 -4 42 -21 4 -28 -68 -12 -55 -70 15
-67 l39 1 0 48 c0 37 -4 50 -19 58 -24 13 -58 13 -66 1z m63 -68 c-4 -21 -36
-29 -51 -14 -9 9 -8 14 3 21 25 16 52 12 48 -7z"/>
<path d="M1060 255 c0 -50 4 -85 10 -85 6 0 10 13 10 29 0 28 2 29 34 24 27
-4 36 -1 50 18 9 13 16 33 16 45 0 42 -60 70 -88 42 -9 -9 -12 -9 -12 0 0 7
-4 12 -10 12 -6 0 -10 -35 -10 -85z m94 43 c15 -25 -3 -52 -37 -56 -21 -3 -28
2 -33 22 -12 49 43 76 70 34z"/>
<path d="M1212 328 c-19 -19 -14 -37 13 -50 14 -6 25 -17 25 -25 0 -7 -11 -13
-25 -13 -14 0 -25 -5 -25 -11 0 -17 52 -6 64 14 9 15 6 22 -16 41 -35 27 -35
36 -2 36 14 0 23 4 19 10 -8 14 -38 13 -53 -2z"/>
<path d="M1361 288 c11 -29 22 -55 25 -60 3 -4 -4 -16 -16 -28 -24 -24 -25
-30 -4 -30 9 0 26 25 44 63 36 79 44 107 31 107 -6 0 -16 -18 -22 -40 -7 -22
-16 -40 -20 -40 -5 0 -14 18 -20 40 -7 22 -18 40 -25 40 -11 0 -9 -12 7 -52z"/>
<path d="M1480 320 c-11 -11 -20 -29 -20 -40 0 -26 34 -60 60 -60 26 0 60 34
60 60 0 11 -9 29 -20 40 -11 11 -29 20 -40 20 -11 0 -29 -9 -40 -20z m70 -15
c15 -18 10 -45 -12 -59 -35 -22 -74 27 -48 59 16 19 44 19 60 0z"/>
<path d="M1612 289 c3 -60 24 -82 58 -61 12 7 20 8 20 2 0 -5 5 -10 10 -10 6
0 10 27 10 60 0 71 -18 81 -22 13 -3 -44 -5 -48 -28 -48 -23 0 -25 4 -28 48
-2 26 -8 47 -13 47 -6 0 -9 -22 -7 -51z"/>
<path d="M1800 278 c0 -70 18 -78 22 -10 3 39 6 47 23 47 17 0 20 -8 23 -47 2
-27 7 -48 12 -48 5 0 10 21 12 48 3 43 5 47 28 47 23 0 25 -4 28 -47 4 -63 22
-62 22 1 0 61 -18 80 -61 64 -16 -6 -31 -8 -34 -3 -3 4 -21 8 -40 7 l-35 -1 0
-58z"/>
<path d="M2010 280 c0 -33 4 -60 10 -60 6 0 10 27 10 60 0 33 -4 60 -10 60 -6
0 -10 -27 -10 -60z"/>
<path d="M2076 321 c-38 -42 -7 -108 47 -97 24 5 28 3 23 -10 -3 -9 -6 -18 -6
-20 0 -2 -16 -4 -36 -4 -21 0 -33 -4 -29 -10 10 -17 61 -11 78 8 12 13 17 37
17 83 l0 65 -39 1 c-26 1 -44 -4 -55 -16z m70 -16 c12 -30 -5 -65 -31 -65 -26
0 -40 27 -30 60 8 24 53 28 61 5z"/>
<path d="M2470 334 c0 -26 34 -114 43 -111 6 2 17 23 25 47 l15 44 14 -48 c8
-26 19 -46 25 -44 12 4 51 108 44 116 -11 10 -25 -11 -31 -49 -8 -46 -15 -44
-30 9 -15 51 -29 49 -47 -5 l-15 -48 -13 48 c-7 26 -16 47 -21 47 -5 0 -9 -3
-9 -6z"/>
<path d="M2660 280 c0 -33 4 -60 10 -60 6 0 10 27 10 60 0 33 -4 60 -10 60 -6
0 -10 -27 -10 -60z"/>
<path d="M2722 328 c-20 -20 -14 -37 18 -53 34 -18 31 -35 -6 -35 -13 0 -24
-4 -24 -10 0 -16 56 -12 70 5 16 20 6 43 -25 55 -32 12 -32 30 0 30 14 0 25 5
25 10 0 14 -43 13 -58 -2z"/>
<path d="M3100 320 c-11 -11 -20 -29 -20 -40 0 -26 34 -60 60 -60 26 0 60 34
60 60 0 11 -9 29 -20 40 -11 11 -29 20 -40 20 -11 0 -29 -9 -40 -20z m70 -15
c15 -18 10 -45 -12 -59 -35 -22 -74 27 -48 59 16 19 44 19 60 0z"/>
<path d="M3285 331 c-3 -5 7 -11 22 -13 34 -4 44 -28 11 -28 -29 0 -48 -17
-48 -42 0 -20 0 -20 53 -23 l37 -2 0 46 c0 26 -5 52 -12 59 -14 14 -54 16 -63
3z m53 -68 c-4 -22 -48 -31 -48 -10 0 19 10 27 32 27 13 0 18 -6 16 -17z"/>
<path d="M3735 331 c-3 -5 9 -11 27 -13 40 -4 42 -21 4 -28 -68 -12 -55 -70
15 -67 l39 1 0 48 c0 37 -4 50 -19 58 -24 13 -58 13 -66 1z m63 -68 c-4 -21
-36 -29 -51 -14 -9 9 -8 14 3 21 25 16 52 12 48 -7z"/>
<path d="M3910 278 c0 -70 18 -78 22 -10 3 43 5 47 28 47 23 0 25 -4 28 -47 4
-63 22 -62 22 1 0 57 -12 70 -62 68 l-38 -1 0 -58z"/>
<path d="M4060 320 c-41 -41 -13 -100 48 -100 45 0 40 18 -5 22 -27 2 -39 8
-41 21 -3 14 4 17 42 17 50 0 60 15 28 43 -25 22 -48 21 -72 -3z m70 -20 c0
-6 -16 -10 -35 -10 -38 0 -46 13 -18 29 19 10 53 -2 53 -19z"/>
<path d="M4165 319 c36 -112 45 -119 67 -52 l16 48 13 -47 c7 -27 18 -48 24
-48 6 0 19 24 28 53 20 62 20 67 8 67 -5 0 -14 -21 -21 -47 l-13 -48 -15 48
c-9 26 -20 46 -26 44 -5 -2 -16 -23 -25 -48 l-15 -44 -11 44 c-6 25 -17 47
-24 49 -10 3 -11 -2 -6 -19z"/>
<path d="M4427 322 c-35 -38 -9 -102 40 -102 47 0 71 71 35 103 -24 22 -55 21
-75 -1z m68 -22 c10 -32 -4 -60 -30 -60 -15 0 -26 7 -30 20 -10 32 4 60 30 60
15 0 26 -7 30 -20z"/>
<path d="M4550 280 c0 -71 16 -80 22 -12 5 51 1 72 -13 72 -5 0 -9 -27 -9 -60z"/>
<path d="M4585 330 c-3 -6 5 -10 18 -10 28 0 37 -16 37 -66 0 -19 5 -34 10
-34 13 0 13 76 0 101 -11 20 -54 26 -65 9z"/>
<path d="M4700 320 c-41 -41 -13 -100 48 -100 45 0 40 18 -5 22 -27 2 -39 8
-41 21 -3 14 4 17 42 17 50 0 60 15 28 43 -25 22 -48 21 -72 -3z m70 -20 c0
-6 -16 -10 -35 -10 -38 0 -46 13 -18 29 19 10 53 -2 53 -19z"/>
</g>
</svg>
